<svg width="30" height="31" viewBox="0 0 30 31" fill="none" xmlns="http://www.w3.org/2000/svg">
<path d="M3.77778 4.86016C3.82472 4.72156 3.90403 4.59919 4.00943 4.50274C4.11483 4.40629 4.24342 4.3384 4.38503 4.30446L20.8037 0.368876C20.9453 0.334932 21.096 0.335864 21.2439 0.371598C21.3918 0.407332 21.5329 0.476886 21.6559 0.574752L29.5184 6.83969C29.9035 7.12677 30.0786 7.62826 29.931 8.06147L22.3867 30.3403C22.3398 30.4789 22.2605 30.6012 22.1551 30.6977C22.0497 30.7941 21.9211 30.862 21.7795 30.896C21.6379 30.9299 21.4872 30.929 21.3393 30.8932C21.1913 30.8575 21.0503 30.7879 20.9273 30.6901L1.12168 14.9302C0.950262 14.7938 0.82179 14.6087 0.755544 14.4027C0.689298 14.1968 0.688851 13.981 0.75427 13.7878L3.77778 4.86016ZM26.8669 7.08768L22.0965 3.28889L22.1584 8.22246L26.8669 7.08768ZM20.2417 8.68395L20.1646 2.57281L6.24884 5.90843L9.8396 11.1897L20.2417 8.68395ZM11.0375 12.9532L20.4728 26.8329L20.2691 10.7302L11.0375 12.9532ZM7.9247 11.6507L5.01866 7.38043L3.18703 12.7925L7.9247 11.6507ZM3.79633 14.6992L17.2983 25.4426L9.12326 13.4162L3.79816 14.6988L3.79633 14.6992ZM22.3625 24.2287L27.5261 8.9845L22.1858 10.2687L22.3625 24.2287Z" fill="#2C67A9"/>
</svg>
